<?xml version="1.0" encoding="UTF-8" standalone="no"?>
<svg
   width="114.30001mm"
   height="114.30001mm"
   viewBox="0 0 432.00004 432.00006"
   fill="none"
   version="1.1"
   id="svg87"
   sodipodi:docname="final-export-set-d1.svg"
   xml:space="preserve"
   inkscape:version="1.2.2 (1:1.2.2+202212051552+b0a8486541)"
   xmlns:inkscape="http://www.inkscape.org/namespaces/inkscape"
   xmlns:sodipodi="http://sodipodi.sourceforge.net/DTD/sodipodi-0.dtd"
   xmlns:xlink="http://www.w3.org/1999/xlink"
   xmlns="http://www.w3.org/2000/svg"
   xmlns:svg="http://www.w3.org/2000/svg"><sodipodi:namedview
     id="namedview89"
     pagecolor="#ffffff"
     bordercolor="#000000"
     borderopacity="0.25"
     inkscape:showpageshadow="false"
     inkscape:pageopacity="0.0"
     inkscape:pagecheckerboard="0"
     inkscape:deskcolor="#d1d1d1"
     showgrid="false"
     borderlayer="false"
     inkscape:zoom="0.10091975"
     inkscape:cx="6837.1159"
     inkscape:cy="2928.0692"
     inkscape:window-width="3108"
     inkscape:window-height="1474"
     inkscape:window-x="439"
     inkscape:window-y="370"
     inkscape:window-maximized="0"
     inkscape:current-layer="svg87"
     inkscape:document-units="mm"
     showguides="false"><sodipodi:guide
       position="795.66185,-358.7485"
       orientation="0,-1"
       id="guide8509"
       inkscape:locked="false" /><sodipodi:guide
       position="795.66185,-358.7485"
       orientation="1,0"
       id="guide8511"
       inkscape:locked="false" /><sodipodi:guide
       position="795.66185,-1298.2281"
       orientation="0,-1"
       id="guide8513"
       inkscape:locked="false" /><sodipodi:guide
       position="1406.3225,-1298.2281"
       orientation="1,0"
       id="guide8515"
       inkscape:locked="false" /><sodipodi:guide
       position="1599.3626,-1298.2281"
       orientation="1,0"
       id="guide8517"
       inkscape:locked="false" /><sodipodi:guide
       position="2210.0235,-1298.2281"
       orientation="1,0"
       id="guide8519"
       inkscape:locked="false" /><sodipodi:guide
       position="2403.0637,-1298.2281"
       orientation="1,0"
       id="guide8521"
       inkscape:locked="false" /><sodipodi:guide
       position="3013.7243,-1309.1081"
       orientation="1,0"
       id="guide8523"
       inkscape:locked="false" /><sodipodi:guide
       position="3206.7654,-319.3548"
       orientation="1,0"
       id="guide26110"
       inkscape:locked="false" /><sodipodi:guide
       position="3817.4248,-328.4026"
       orientation="1,0"
       id="guide26112"
       inkscape:locked="false" /><sodipodi:guide
       position="4010.466,-300.1429"
       orientation="1,0"
       id="guide26114"
       inkscape:locked="false" /><sodipodi:guide
       position="4621.1261,-331.8922"
       orientation="1,0"
       id="guide26116"
       inkscape:locked="false" /><sodipodi:guide
       position="4814.1674,-328.109"
       orientation="1,0"
       id="guide26118"
       inkscape:locked="false" /><sodipodi:guide
       position="5424.8272,-312.9885"
       orientation="1,0"
       id="guide26120"
       inkscape:locked="false" /></sodipodi:namedview><defs
     id="defs85"><linearGradient
       inkscape:collect="always"
       id="linearGradient5143"><stop
         style="stop-color:#d2eefc;stop-opacity:1;"
         offset="0"
         id="stop5139" /><stop
         style="stop-color:#9ac9ff;stop-opacity:1;"
         offset="1"
         id="stop5141" /></linearGradient><clipPath
       clipPathUnits="userSpaceOnUse"
       id="clipPath11136-75-2-1-76-1-3"><rect
         style="fill:#000000;fill-opacity:1;stroke:none;stroke-width:0.132292;stroke-linejoin:round;stroke-dasharray:none;stroke-dashoffset:1.4;stroke-opacity:1"
         id="rect11138-9-9-5-5-8-1"
         width="114.30001"
         height="114.30001"
         x="-281.51666"
         y="0" /></clipPath><filter
       style="color-interpolation-filters:sRGB"
       inkscape:label="Drop Shadow 2"
       id="filter24454-04-83-8-7-1-1-9-3-5-6-79-9"
       x="-0.083262287"
       y="-0.075216874"
       width="1.1665246"
       height="1.1660639"><feFlood
         flood-opacity="0.34999999999999998"
         flood-color="rgb(0,0,0)"
         result="flood"
         id="feFlood24444-8-83-1-4-7-7-3-1-4-9-2-4" /><feComposite
         in="flood"
         in2="SourceGraphic"
         operator="in"
         result="composite1"
         id="feComposite24446-8-33-0-1-7-8-1-9-7-3-02-7" /><feGaussianBlur
         in="composite1"
         stdDeviation="1.5"
         result="blur"
         id="feGaussianBlur24448-8-80-3-8-11-57-9-4-6-7-37-8" /><feOffset
         dx="0"
         dy="0.74808511389308308"
         result="offset"
         id="feOffset24450-9-47-0-5-59-4-4-78-5-4-5-4" /><feComposite
         in="SourceGraphic"
         in2="offset"
         operator="over"
         result="composite2"
         id="feComposite24452-7-6-4-9-77-1-7-4-6-5-9-5" /></filter><linearGradient
       inkscape:collect="always"
       xlink:href="#linearGradient5143"
       id="linearGradient7584-9-9-6-93-2-0"
       x1="50.079498"
       y1="10.205615"
       x2="50.079498"
       y2="57.861599"
       gradientUnits="userSpaceOnUse" /></defs><g
     id="g1312-4-6-2-3-3"
     inkscape:label="ic_foreground"
     transform="matrix(3.7795276,0,0,3.7795276,1064,-1.7301305e-5)"><g
       id="g11036-5-1-5-6-2"
       clip-path="url(#clipPath11136-75-2-1-76-1-3)"
       inkscape:label="002-fg"><path
         fill-rule="evenodd"
         clip-rule="evenodd"
         d="M 14.38137,89.733361 31.8269,40.3111 C 30.7003,39.2204 30,37.692 30,36 c 0,-3.3137 2.6863,-6 6,-6 3.3137,0 6,2.6863 6,6 0,1.6921 -0.7004,3.2206 -1.8272,4.3113 L 57.618231,89.733361 H 52.315835 L 42.2585,61.2418 C 40.2539,61.7372 38.1577,62 36.0001,62 33.8424,62 31.746,61.7372 29.7412,61.2417 L 19.683765,89.733361 Z M 36.0001,57 c -1.5746,0 -3.1088,-0.1733 -4.5845,-0.5019 l 4.5842,-12.9872 4.5843,12.9873 C 39.1086,56.8267 37.5746,57 36.0001,57 Z"
         fill="white"
         id="path11-3-6-7-7-5-0-0-4-1-0"
         style="fill:#ffffff;fill-opacity:1;stroke-width:0.0648043;filter:url(#filter24454-04-83-8-7-1-1-9-3-5-6-79-9)"
         sodipodi:nodetypes="ccsssccccscccscccs"
         transform="matrix(1.0635851,0,0,1.0635851,-262.65577,18.860941)" /><path
         fill-rule="evenodd"
         clip-rule="evenodd"
         d="M 23.2964,53.9637 C 17.6714,49.9787 14,43.4181 14,36 14,23.8497 23.8497,14 36,14 c 12.1503,0 22,9.8497 22,22 0,7.4181 -3.6715,13.9787 -9.2964,17.9638 l 1.3759,3.8978 C 57.2517,53.233 62,45.171 62,36 62,21.6406 50.3594,10 36,10 21.6406,10 10,21.6406 10,36 c 0,9.171 4.7483,17.233 11.9205,21.8616 z m 23.2985,-5.974 C 49.9099,45.0582 52,40.7732 52,36 52,27.1634 44.8366,20 36,20 c -8.8366,0 -16,7.1634 -16,16 0,4.7732 2.0901,9.0582 5.4051,11.9897 l 1.4778,-4.1869 C 25.0857,41.7048 24,38.9792 24,36 c 0,-6.6274 5.3726,-12 12,-12 6.6274,0 12,5.3726 12,12 0,2.9792 -1.0857,5.7049 -2.883,7.8029 z"
         fill="#bce5fb"
         id="path4-4-0-4-8-3-9-3-6-7-2-6"
         style="fill:url(#linearGradient7584-9-9-6-93-2-0);fill-opacity:1;stroke-width:0.0391576;filter:url(#filter24454-04-83-8-7-1-1-9-3-5-6-79-9)"
         sodipodi:nodetypes="csssccssscccsssccssscc"
         transform="matrix(1.0635851,0,0,1.0635851,-262.65577,18.860941)" /></g><rect
       style="fill:none;fill-opacity:1;stroke:none;stroke-width:0.132292;stroke-linejoin:round;stroke-dasharray:none;stroke-dashoffset:1.4;stroke-opacity:1"
       id="rect48044-6-9-4-9-6-8-7-6-3-4-9-1"
       width="114.30001"
       height="114.30001"
       x="-281.51666"
       y="4.5776369e-06"
       inkscape:label="002-bg" /></g></svg>
