<?xml version="1.0" encoding="UTF-8" standalone="no"?>
<svg
   width="114.30001mm"
   height="114.30001mm"
   viewBox="0 0 432.00004 432.00006"
   fill="none"
   version="1.1"
   id="svg87"
   sodipodi:docname="ic_launcher_monochrome.svg"
   xml:space="preserve"
   inkscape:version="1.2.2 (b0a8486541, 2022-12-01)"
   inkscape:export-filename="ic_launcher_monochrome.png"
   inkscape:export-xdpi="95.999992"
   inkscape:export-ydpi="95.999992"
   xmlns:inkscape="http://www.inkscape.org/namespaces/inkscape"
   xmlns:sodipodi="http://sodipodi.sourceforge.net/DTD/sodipodi-0.dtd"
   xmlns="http://www.w3.org/2000/svg"
   xmlns:svg="http://www.w3.org/2000/svg"><sodipodi:namedview
     id="namedview89"
     pagecolor="#ffffff"
     bordercolor="#000000"
     borderopacity="0.25"
     inkscape:showpageshadow="false"
     inkscape:pageopacity="0.0"
     inkscape:pagecheckerboard="0"
     inkscape:deskcolor="#d1d1d1"
     showgrid="false"
     borderlayer="false"
     inkscape:zoom="2.2835533"
     inkscape:cx="169.03481"
     inkscape:cy="239.32001"
     inkscape:window-width="2554"
     inkscape:window-height="1349"
     inkscape:window-x="0"
     inkscape:window-y="40"
     inkscape:window-maximized="0"
     inkscape:current-layer="svg87"
     inkscape:document-units="mm"
     showguides="false"><sodipodi:guide
       position="795.66185,-358.7485"
       orientation="0,-1"
       id="guide8509"
       inkscape:locked="false" /><sodipodi:guide
       position="795.66185,-358.7485"
       orientation="1,0"
       id="guide8511"
       inkscape:locked="false" /><sodipodi:guide
       position="795.66185,-1298.2281"
       orientation="0,-1"
       id="guide8513"
       inkscape:locked="false" /><sodipodi:guide
       position="1406.3225,-1298.2281"
       orientation="1,0"
       id="guide8515"
       inkscape:locked="false" /><sodipodi:guide
       position="1599.3626,-1298.2281"
       orientation="1,0"
       id="guide8517"
       inkscape:locked="false" /><sodipodi:guide
       position="2210.0235,-1298.2281"
       orientation="1,0"
       id="guide8519"
       inkscape:locked="false" /><sodipodi:guide
       position="2403.0637,-1298.2281"
       orientation="1,0"
       id="guide8521"
       inkscape:locked="false" /><sodipodi:guide
       position="3013.7243,-1309.1081"
       orientation="1,0"
       id="guide8523"
       inkscape:locked="false" /><sodipodi:guide
       position="3206.7654,-319.3548"
       orientation="1,0"
       id="guide26110"
       inkscape:locked="false" /><sodipodi:guide
       position="3817.4248,-328.4026"
       orientation="1,0"
       id="guide26112"
       inkscape:locked="false" /><sodipodi:guide
       position="4010.466,-300.1429"
       orientation="1,0"
       id="guide26114"
       inkscape:locked="false" /><sodipodi:guide
       position="4621.1261,-331.8922"
       orientation="1,0"
       id="guide26116"
       inkscape:locked="false" /><sodipodi:guide
       position="4814.1674,-328.109"
       orientation="1,0"
       id="guide26118"
       inkscape:locked="false" /><sodipodi:guide
       position="5424.8272,-312.9885"
       orientation="1,0"
       id="guide26120"
       inkscape:locked="false" /></sodipodi:namedview><defs
     id="defs85"><clipPath
       clipPathUnits="userSpaceOnUse"
       id="clipPath11136-75-2-1-76-1-3"><rect
         style="fill:#000000;fill-opacity:1;stroke:none;stroke-width:0.132292;stroke-linejoin:round;stroke-dasharray:none;stroke-dashoffset:1.4;stroke-opacity:1"
         id="rect11138-9-9-5-5-8-1"
         width="114.30001"
         height="114.30001"
         x="-281.51666"
         y="0" /></clipPath><filter
       style="color-interpolation-filters:sRGB"
       inkscape:label="Drop Shadow 2"
       id="filter24454-04-83-8-7-1-1-9-3-5-6-79-9"
       x="-0.083262289"
       y="-0.075216875"
       width="1.1665246"
       height="1.1660639"><feFlood
         flood-opacity="0.34999999999999998"
         flood-color="rgb(0,0,0)"
         result="flood"
         id="feFlood24444-8-83-1-4-7-7-3-1-4-9-2-4" /><feComposite
         in="flood"
         in2="SourceGraphic"
         operator="in"
         result="composite1"
         id="feComposite24446-8-33-0-1-7-8-1-9-7-3-02-7" /><feGaussianBlur
         in="composite1"
         stdDeviation="1.5"
         result="blur"
         id="feGaussianBlur24448-8-80-3-8-11-57-9-4-6-7-37-8" /><feOffset
         dx="0"
         dy="0.74808511389308308"
         result="offset"
         id="feOffset24450-9-47-0-5-59-4-4-78-5-4-5-4" /><feComposite
         in="SourceGraphic"
         in2="offset"
         operator="over"
         result="composite2"
         id="feComposite24452-7-6-4-9-77-1-7-4-6-5-9-5" /></filter></defs><path
     d="m 216.02395,128.96571 c -49.49057,0 -89.61145,40.12091 -89.61149,89.6115 4e-5,31.60844 16.36381,59.39483 41.08332,75.34758 l 4.74556,-13.43652 c -19.3869,-13.73449 -32.04267,-36.34403 -32.0427,-61.91106 3e-5,-41.87675 33.94856,-75.82533 75.82531,-75.82533 41.87686,0 75.82532,33.94858 75.82532,75.82533 4e-5,25.56703 -12.65613,48.17621 -32.0427,61.91106 l 4.73919,13.43652 c 24.71945,-15.95275 41.08969,-43.73914 41.08969,-75.34758 2e-5,-49.49059 -40.12081,-89.6115 -89.6115,-89.6115 z m 0,34.46589 c -30.45591,0 -55.14556,24.68969 -55.1456,55.14561 4e-5,16.45117 7.20086,31.22216 18.62618,41.32582 l 5.09614,-14.43285 c -6.19421,-7.2309 -9.93615,-16.62492 -9.93615,-26.89297 0,-22.84176 18.51769,-41.35945 41.35943,-41.35945 22.84184,0 41.35946,18.51769 41.35943,41.35945 3e-5,10.26805 -3.7416,19.66207 -9.93614,26.89297 l 5.08886,14.43285 c 11.42533,-10.10366 18.63345,-24.87465 18.63345,-41.32582 0,-30.45592 -24.68958,-55.14561 -55.1456,-55.14561 z m 0,34.46588 c -11.42087,0 -20.67971,9.25884 -20.67971,20.67973 2e-5,5.83161 2.41119,11.0978 6.2941,14.85698 l -32.57493,92.27717 c 5.31038,2.21554 10.77672,4.03695 16.35468,5.44944 l 9.03062,-25.5833 c 6.9097,1.7078 14.13861,2.61119 21.57524,2.61119 7.43636,0 14.65894,-0.90375 21.56797,-2.61119 l 9.03154,25.58602 c 5.57796,-1.4125 11.04431,-3.23388 16.35468,-5.44944 L 230.4032,233.43419 c 3.88361,-3.75918 6.30047,-9.02505 6.30047,-14.85698 3e-5,-11.42089 -9.25877,-20.67973 -20.67972,-20.67973 z m 0,46.56273 15.79884,44.76625 c -5.08543,1.13221 -10.37218,1.72928 -15.79884,1.72928 -5.42692,0 -10.71271,-0.59672 -15.79884,-1.72928 z"
     style="fill:#ffffff;fill-opacity:0.996325;stroke:none;stroke-width:0.692633;stroke-linejoin:round"
     id="path3607" /></svg>
