<svg width="1024" height="1024" version="1.1" viewBox="0 0 1024 1024" xmlns="http://www.w3.org/2000/svg">
 <defs>
  <linearGradient id="linearGradient868" x1="519.48" x2="519.95" y1="173.14" y2="852.63" gradientUnits="userSpaceOnUse">
   <stop stop-color="#22a6ff" offset="0"/>
   <stop stop-color="#1485ff" offset="1"/>
  </linearGradient>
  <filter id="filter888" color-interpolation-filters="sRGB">
   <feGaussianBlur result="blur" stdDeviation="5 5"/>
  </filter>
  <filter id="filter892" color-interpolation-filters="sRGB">
   <feGaussianBlur result="blur" stdDeviation="5 5"/>
  </filter>
 </defs>
 <circle cx="512.01" cy="512.01" r="342" fill="url(#linearGradient868)"/>
 <path d="m511.53 497.4.00196.00391c-14.584.0161-28.607 5.8218-39.842 17.061-12.334 12.338-17.811 26.524-16.684 43.197.8936 13.212 4.5629 22.737 12.738 33.084l4.2207 5.3438-3.0586 8.6523c-1.6809 4.7603-14.308 40.515-28.062 79.451-13.754 38.94-34.007 96.438-45.008 127.77-2.4766 7.0549-4.6513 13.162-6.7949 19.178a342 342 0 0045.559 13.996c2.5327-7.189 4.2216-11.994 6.7539-19.176l10.734-30.459 3.0352.44726c1.6682.24785 8.9081 1.5188 16.086 2.8281 11.722 2.1381 15.908 2.3854 41.156 2.3809 25.3-.008 29.365-.24197 40.658-2.373 6.9017-1.3022 13.928-2.5737 15.615-2.8281l3.0723-.46484 15.686 44.51c.66672 1.8922 1.1835 3.392 1.8125 5.1855a342 342 0 0045.713-14.023c-8.4734-23.762-20.236-56.938-33.57-94.744-25.421-72.079-46.977-133.1-47.906-135.6l-1.6894-4.541 4.9199-6.5c13.968-18.464 16.173-40.569 6.1133-61.186-4.3531-8.9207-15.962-20.534-24.879-24.889-8.6781-4.2377-17.631-6.3127-26.381-6.3027zm.03321 130.26.00195.00196c.56491-.75744 43.374 118.85 43.443 121.38.0773 2.8357-45.7 6.5412-60.205 4.873-11.533-1.3262-26.098-3.8801-26.098-4.5742 0-.99797 42.033-120.34 42.857-121.68z" fill="#1a237e" fill-opacity=".15" filter="url(#filter888)"/>
 <path d="m513.46 307.05c-22.846-.14368-45.696 2.8524-67.926 8.9823-56.998 15.715-106.74 52.094-140.91 103.06-12.581 18.762-26.745 50.943-32.711 74.316-22.905 89.742 7.8983 188.06 77.672 247.91 8.7984 7.5483 26.622 21.134 27.806 21.197.31303.0161 3.3702-7.9909 6.7942-17.795 3.4242-9.8043 6.2044-18.277 6.1778-18.83-.0282-.55232-2.8547-3.0377-6.2853-5.5232-8.4838-6.1465-26.673-23.849-34.568-33.642-30.974-38.423-46.746-83.345-46.714-133.06.0213-33.251 6.7995-62.358 21.34-91.637 31.003-62.434 89.115-104.58 158.41-114.89 14.416-2.1428 44.272-2.1305 58.785.0241 92.845 13.787 164.72 85.839 177.96 178.38 2.0125 14.073 2.2468 41.005.4708 54.23-5.4789 40.791-21.701 78.38-46.803 108.46-7.7205 9.2507-23.765 24.884-32.866 32.024-3.7269 2.9241-6.7753 5.687-6.7753 6.1396 0 .45265 2.8436 8.7791 6.3191 18.504l6.3191 17.684 7.4831-5.145c12.255-8.4234 20.875-15.704 33.128-27.975 20.292-20.324 33.622-38.843 46.714-64.897 25.283-50.327 32.372-109.18 19.868-164.94-9.9894-44.545-31.866-84.556-64.526-118.03-31.592-32.375-72.055-55.86-115.1-66.816-19.727-5.0198-39.884-7.5917-60.04-7.7185zm-2.6292 95.593c-19.297.062-30.581 1.8262-47.229 7.3857-32.077 10.71-62.072 34.155-80.468 62.889-9.0503 14.138-18.403 38.337-21.503 55.634-2.1094 11.772-2.3854 37.529-.51643 48.203 4.6521 26.57 13.976 48.851 28.877 69.009 5.6089 7.5865 19.126 22.378 20.45 22.378.41162 0 3.7453-8.4729 7.4078-18.83 3.6626-10.356 6.6566-19.291 6.653-19.855-.003-.56415-2.1954-4.0304-4.8714-7.7024-14.564-19.984-21.614-42.179-21.629-68.095-.0121-20.827 4.7398-38.589 15.082-56.375 31.572-54.29 101.2-72.984 155.47-41.737 52.379 30.153 72.139 94.382 45.785 148.83-2.6734 5.5232-7.325 13.385-10.337 17.471l-5.4777 7.43 4.6891 12.655c2.5785 6.96 5.6962 15.706 6.9298 19.434 1.2336 3.7283 2.6287 6.7782 3.0986 6.7782 1.4845 0 16.986-17.423 23.042-25.898 11.196-15.667 20.697-37.555 24.504-56.451 6.8288-33.889 3.002-66.096-11.421-96.144-8.3156-17.325-16.512-28.899-30.082-42.473-17.843-17.849-36.087-29.12-60.161-37.165-17.656-5.9006-27.718-7.4356-48.291-7.3696z" fill="#1a237e" fill-opacity=".15" filter="url(#filter892)"/>
 <path d="m513.46 279.05c-22.846-.14368-45.696 2.8524-67.926 8.9823-56.998 15.715-106.74 52.094-140.91 103.06-12.581 18.762-26.745 50.943-32.711 74.316-22.905 89.742 7.8983 188.06 77.672 247.91 8.7984 7.5483 26.622 21.134 27.806 21.197.31303.0161 3.3702-7.9909 6.7942-17.795 3.4242-9.8043 6.2044-18.277 6.1778-18.83-.0282-.55232-2.8547-3.0377-6.2853-5.5232-8.4838-6.1465-26.673-23.849-34.568-33.642-30.974-38.423-46.746-83.345-46.714-133.06.0213-33.251 6.7995-62.358 21.34-91.637 31.003-62.434 89.115-104.58 158.41-114.89 14.416-2.1428 44.272-2.1305 58.785.0241 92.845 13.787 164.72 85.839 177.96 178.38 2.0125 14.073 2.2468 41.005.4708 54.23-5.4789 40.791-21.701 78.38-46.803 108.46-7.7205 9.2507-23.765 24.884-32.866 32.024-3.7269 2.9241-6.7753 5.687-6.7753 6.1396 0 .45265 2.8436 8.7791 6.3191 18.504l6.3191 17.684 7.4831-5.145c12.255-8.4234 20.875-15.704 33.128-27.975 20.292-20.324 33.622-38.843 46.714-64.897 25.283-50.327 32.372-109.18 19.868-164.94-9.9894-44.545-31.866-84.556-64.526-118.03-31.592-32.375-72.055-55.86-115.1-66.816-19.727-5.0198-39.884-7.5917-60.04-7.7185zm-2.6292 95.593c-19.297.062-30.581 1.8262-47.229 7.3857-32.077 10.71-62.072 34.155-80.468 62.889-9.0503 14.138-18.403 38.337-21.503 55.634-2.1094 11.772-2.3854 37.529-.51643 48.203 4.6521 26.57 13.976 48.851 28.877 69.009 5.6089 7.5865 19.126 22.378 20.45 22.378.41162 0 3.7453-8.4729 7.4078-18.83 3.6626-10.356 6.6566-19.291 6.653-19.855-.003-.56415-2.1954-4.0304-4.8714-7.7024-14.564-19.984-21.614-42.179-21.629-68.095-.0121-20.827 4.7398-38.589 15.082-56.375 31.572-54.29 101.2-72.984 155.47-41.737 52.379 30.153 72.139 94.382 45.785 148.83-2.6734 5.5232-7.325 13.385-10.337 17.471l-5.4777 7.43 4.6891 12.655c2.5785 6.96 5.6962 15.706 6.9298 19.434 1.2336 3.7283 2.6287 6.7782 3.0986 6.7782 1.4845 0 16.986-17.423 23.042-25.898 11.196-15.667 20.697-37.555 24.504-56.451 6.8288-33.889 3.002-66.096-11.421-96.144-8.3156-17.325-16.512-28.899-30.082-42.473-17.843-17.849-36.087-29.12-60.161-37.165-17.656-5.9006-27.718-7.4356-48.291-7.3696z" fill="#1c76d3"/>
 <path d="m513.46 264.33c-22.846-.14368-45.696 2.8524-67.926 8.9823-56.998 15.715-106.74 52.094-140.91 103.06-12.581 18.762-26.745 50.943-32.711 74.316-22.905 89.742 7.8983 188.06 77.672 247.91 8.7984 7.5483 26.622 21.134 27.806 21.197.31303.0161 3.3702-7.9909 6.7942-17.795 3.4242-9.8043 6.2044-18.277 6.1778-18.83-.0282-.55232-2.8547-3.0377-6.2853-5.5232-8.4838-6.1464-26.673-23.849-34.568-33.642-30.974-38.423-46.746-83.345-46.714-133.06.0213-33.251 6.7995-62.358 21.34-91.637 31.003-62.434 89.115-104.58 158.41-114.89 14.416-2.1428 44.272-2.1305 58.785.0249 92.845 13.787 164.72 85.839 177.96 178.38 2.0125 14.073 2.2468 41.005.4708 54.23-5.4789 40.791-21.701 78.38-46.803 108.46-7.7205 9.2507-23.765 24.884-32.866 32.024-3.7269 2.9241-6.7753 5.687-6.7753 6.1396 0 .45265 2.8436 8.7791 6.3191 18.504l6.3191 17.684 7.4831-5.145c12.255-8.4234 20.875-15.704 33.128-27.975 20.292-20.324 33.622-38.843 46.714-64.897 25.283-50.327 32.372-109.18 19.868-164.94-9.9894-44.545-31.866-84.556-64.526-118.03-31.592-32.375-72.055-55.86-115.1-66.816-19.727-5.0198-39.884-7.5917-60.04-7.7185zm-2.6292 95.593c-19.297.062-30.581 1.8262-47.229 7.3857-32.077 10.71-62.072 34.155-80.468 62.889-9.0503 14.138-18.403 38.337-21.503 55.634-2.1094 11.772-2.3854 37.529-.51643 48.203 4.6521 26.57 13.976 48.851 28.877 69.009 5.6089 7.5865 19.126 22.378 20.45 22.378.41162 0 3.7453-8.4729 7.4078-18.83 3.6626-10.356 6.6566-19.291 6.653-19.855-.003-.56415-2.1954-4.0304-4.8714-7.7024-14.564-19.984-21.614-42.179-21.629-68.095-.0121-20.827 4.7398-38.589 15.082-56.375 31.572-54.29 101.2-72.984 155.47-41.737 52.379 30.153 72.139 94.382 45.785 148.83-2.6734 5.5232-7.325 13.385-10.337 17.471l-5.4777 7.43 4.6891 12.655c2.5785 6.96 5.6962 15.706 6.9298 19.434 1.2336 3.7283 2.6287 6.7782 3.0986 6.7782 1.4845 0 16.986-17.423 23.042-25.898 11.196-15.667 20.697-37.555 24.504-56.451 6.8288-33.889 3.002-66.096-11.421-96.144-8.3156-17.325-16.512-28.899-30.082-42.473-17.843-17.849-36.087-29.12-60.161-37.165-17.656-5.9006-27.718-7.4356-48.291-7.3696z" fill="#d2eefc"/>
 <path d="m513.46 279.05c-22.846-.14369-45.696 2.8524-67.93 8.9823-56.998 15.715-106.74 52.094-140.91 103.06-12.581 18.762-26.741 50.939-32.707 74.312-4.4445 17.413-6.8401 35.149-7.3479 52.866 2.1134 68.526 32.539 135.3 85.023 180.32 8.7984 7.5483 26.619 21.14 27.804 21.202.31304.0161 3.3656-7.9957 6.7898-17.8.99974-2.8625 1.7258-5.0492 2.5619-7.5205-.86476-.69672-1.6291-1.3563-2.6641-2.1061-8.4838-6.1464-26.675-23.849-34.57-33.643-30.974-38.423-46.742-83.345-46.71-133.06.001-2.1247.10824-4.187.16505-6.2792-.10071-2.8018-.16682-5.6145-.16505-8.448.0213-33.251 6.7959-62.362 21.336-91.637 31.003-62.434 89.119-104.58 158.41-114.89 14.416-2.1428 44.276-2.124 58.789.0314 92.845 13.787 164.72 85.831 177.96 178.37 1.3499 9.4394 1.8212 24.5 1.501 37.494.2728 11.678-.002 23.811-1.0294 31.458-5.4789 40.791-21.705 78.384-46.807 108.46-7.7205 9.2507-23.764 24.883-32.865 32.024-1.1844.9293-2.0699 1.7106-3.0413 2.5383.84761 2.4268 1.5777 4.5596 2.5855 7.3793l6.3182 17.69 7.4815-5.1474c12.255-8.4234 20.879-15.705 33.132-27.976 20.292-20.324 33.621-38.841 46.71-64.897 15.919-31.687 24.608-66.764 25.753-102.31-.42686-16.043-2.3406-32.104-5.8861-47.913-9.9894-44.545-31.867-84.56-64.526-118.03-31.592-32.375-72.055-55.86-115.1-66.812-19.727-5.0198-39.882-7.5905-60.04-7.7173zm-2.6248 95.593c-19.297.062-30.588 1.8274-47.237 7.3869-32.077 10.71-62.068 34.157-80.464 62.893-9.0503 14.138-18.401 38.333-21.501 55.63-.87751 4.8971-1.359 12.324-1.5796 19.969.17703 5.3188.48359 10.22 1.0609 13.517 4.6521 26.57 13.979 48.851 28.88 69.005 5.6089 7.5865 19.124 22.374 20.448 22.374.41161 0 3.748-8.4729 7.4107-18.829 1.3814-3.906 2.478-7.1266 3.5442-10.255-.59485-.87074-1.0805-1.6339-1.7682-2.5776-14.564-19.984-21.612-42.179-21.627-68.095-.002-2.6862.0849-5.3228.24383-7.9136-.11346-2.2535-.24222-4.5016-.24383-6.8136-.0121-20.827 4.7386-38.585 15.08-56.371 31.572-54.29 101.2-72.98 155.48-41.737 38.961 22.429 59.851 63.714 57.163 105.8 1.2742 19.22-2.3337 39.056-11.379 57.747-2.6734 5.5232-7.3213 13.391-10.334 17.478l-1.8468 2.5069 1.053 2.8527c2.5785 6.96 5.6974 15.706 6.9315 19.434 1.234 3.7283 2.6264 6.7822 3.0963 6.7822 1.4845 0 16.986-17.427 23.042-25.902 11.196-15.667 20.704-37.553 24.511-56.447 1.6667-8.2709 2.6825-16.439 3.0806-24.503-.94245-19.695-5.7634-38.705-14.507-56.918-8.3156-17.325-16.513-28.901-30.083-42.477-17.843-17.849-36.084-29.118-60.157-37.163-17.656-5.9006-27.715-7.4372-48.291-7.3712z" fill="#c3e8fb"/>
 <path d="m511.53 469.4c-14.584.0161-28.608 5.8222-39.843 17.061-12.334 12.338-17.811 26.524-16.684 43.197.8936 13.212 4.5636 22.738 12.739 33.085l4.22 5.3437-3.057 8.6524c-1.6809 4.7603-14.309 40.514-28.063 79.45-13.754 38.94-34.007 96.438-45.008 127.77-6.3883 18.198-11.785 33.226-15.591 43.608a342 342 0 0045.29 15.293l.0628-.17302c2.7588-7.85 9.849-27.977 15.756-44.73l10.735-30.46 3.0334.44795c1.6682.24785 8.9082 1.5198 16.086 2.8291 11.722 2.1381 15.909 2.3856 41.157 2.3811 25.3-.008 29.365-.24222 40.658-2.3733 6.9017-1.3022 13.928-2.5747 15.615-2.8291l3.0727-.46364 15.686 44.509c4.4034 12.497 7.9824 22.851 10.751 30.947a342 342 0 0045.523-15.34c-7.4361-20.627-23.483-65.782-42.32-119.19-25.421-72.079-46.976-133.1-47.905-135.6l-1.6896-4.5422 4.9196-6.4989c13.968-18.464 16.174-40.57 6.1139-61.187-4.3531-8.9207-15.963-20.533-24.88-24.888-8.6781-4.2377-17.631-6.3126-26.381-6.3026zm.0322 130.26c.56491-.75744 43.374 118.85 43.443 121.38.0773 2.8357-45.7 6.5404-60.205 4.8722-11.533-1.3262-26.098-3.8795-26.098-4.5736 0-.99797 42.035-120.34 42.859-121.68z" fill="#1c76d3"/>
 <path d="m511.53 454.67c-14.584.0161-28.603 5.825-39.838 17.064-12.334 12.338-17.813 26.526-16.685 43.201.89356 13.212 4.5599 22.732 12.735 33.079l4.2228 5.345-3.0558 8.6556c-1.6809 4.7603-14.31 40.514-28.065 79.45-13.754 38.94-34.007 96.438-45.008 127.77-9.9986 28.485-18.579 52.198-20.351 56.298 14.713 6.4056 29.858 11.768 45.322 16.048l4.7861-13.617c2.7588-7.85 9.8486-27.981 15.756-44.734l10.741-30.46 3.0323.45024c1.6682.24785 8.9062 1.5214 16.084 2.8308 11.722 2.1381 15.913 2.3792 41.161 2.3746 25.3-.008 29.363-.24061 40.658-2.3717 6.9017-1.3022 13.93-2.5764 15.617-2.8308l3.0691-.46199 15.684 44.509c7.9993 22.704 14.512 41.676 15.273 44.461 15.63-4.2968 30.934-9.6993 45.797-16.166-.0736-.008-.12956-.0241-.15893-.0543-.40196-.42578-21.531-59.746-46.951-131.83-25.421-72.079-46.98-133.1-47.909-135.6l-1.6905-4.5434 4.9201-6.5029c13.968-18.464 16.178-40.566 6.1175-61.183-4.3531-8.9207-15.963-20.536-24.881-24.891-8.6781-4.2377-17.633-6.313-26.383-6.303zm.0282 130.24c.53003-.85791 43.378 118.86 43.447 121.39.0773 2.8357-45.7 6.5396-60.205 4.8714-11.533-1.3262-26.1-3.8785-26.1-4.5728 0-.99806 42.043-120.37 42.859-121.69z" fill="#fcfcfc"/>
 <path d="m511.53 469.4c-14.584.0161-28.608 5.8222-39.843 17.061-9.4349 9.4378-14.831 19.971-16.354 31.859 1.2732 11.484 4.9547 20.264 12.409 29.697l4.22 5.3437-3.057 8.66c-.0322.0909-.49438 1.4035-.53438 1.5167l3.5914 4.5503-3.057 8.6524c-1.6809 4.7603-14.309 40.514-28.063 79.45-13.754 38.94-34.007 96.438-45.008 127.77-6.3814 18.179-11.77 33.18-15.576 43.559 2.1106.88121 4.2147 1.7863 6.342 2.6248 3.6788 1.45 7.3781 2.8358 11.104 4.1572.0523.0201.10501.0362.15732.0551 3.7792 1.3381 7.5861 2.6147 11.411 3.8193 3.8246 1.2046 7.6702 2.3408 11.536 3.4106l4.7857-13.619c2.7588-7.85 9.849-27.977 15.756-44.73l10.735-30.46 3.0334.44794c1.6682.24786 8.9082 1.5198 16.086 2.8291 11.722 2.1381 15.909 2.3779 41.157 2.3733 25.3-.008 29.365-.24222 40.658-2.3733 6.9017-1.3022 13.928-2.5747 15.615-2.8291l3.0727-.46368 15.686 44.509c7.9993 22.704 14.508 41.68 15.269 44.465a342 342 0 00.2044-.0628c3.6854-1.0156 7.3543-2.0918 11.002-3.2299a342 342 0 00.97447-.3066c3.5573-1.1215 7.0988-2.2992 10.617-3.5363a342 342 0 00.90374-.32229c3.4635-1.2288 6.9037-2.5107 10.326-3.8507a342 342 0 00.0942-.0402 342 342 0 00.99805-.39311c1.9686-.77857 3.9161-1.6132 5.8704-2.4283-7.4393-20.636-23.474-65.762-42.304-119.15-25.421-72.079-46.976-133.1-47.905-135.6l-1.6896-4.5422 3.6071-4.7623c-.1018-.28326-1.8804-5.3152-1.9175-5.4146l-1.6896-4.5422 4.9197-6.507c6.5609-8.6725 10.492-18.151 11.811-27.898-.8417-6.2293-2.7202-12.46-5.6974-18.562-4.3531-8.9207-15.963-20.533-24.88-24.888-8.6781-4.2377-17.631-6.3126-26.381-6.3026zm.0322 115.54c.56495-.75732 43.374 118.85 43.443 121.38.0121.51043-1.8224 1.0493-4.3302 1.5796 2.4764 7.1938 4.3169 12.671 4.3302 13.148.0773 2.8357-45.7 6.5404-60.205 4.8722-11.533-1.3262-26.098-3.8795-26.098-4.5736 0-.17463 2.4752-7.3165 4.605-13.477-2.6196-.53554-4.605-1.0164-4.605-1.2495 0-.99797 42.035-120.33 42.859-121.67z" fill="#f6f6f6"/>
</svg>
