<svg width="24" height="24" viewBox="0 0 24 24" fill="none" xmlns="http://www.w3.org/2000/svg">
<path fill-rule="evenodd" clip-rule="evenodd" d="M3.5 12C3.5 7.30558 7.30558 3.5 12 3.5C16.6944 3.5 20.5 7.30558 20.5 12C20.5 14.7929 19.153 17.2712 17.0732 18.8207L17.4134 19.8077C19.8831 18.0922 21.5 15.2349 21.5 12C21.5 6.75329 17.2467 2.5 12 2.5C6.75329 2.5 2.5 6.75329 2.5 12C2.5 15.2349 4.11687 18.0922 6.58655 19.8077L6.9268 18.8207C4.84701 17.2712 3.5 14.7929 3.5 12ZM16.017 15.7568C16.9369 14.7736 17.5 13.4526 17.5 12C17.5 8.96243 15.0376 6.5 12 6.5C8.96243 6.5 6.5 8.96243 6.5 12C6.5 13.4526 7.06311 14.7736 7.98295 15.7568L8.36389 14.6517C7.82064 13.908 7.5 12.9915 7.5 12C7.5 9.51472 9.51472 7.5 12 7.5C14.4853 7.5 16.5 9.51472 16.5 12C16.5 12.9915 16.1794 13.908 15.6361 14.6517L16.017 15.7568Z" fill="black"/>
<path fill-rule="evenodd" clip-rule="evenodd" d="M13.3197 13.5029C13.7368 13.1364 14.0001 12.5989 14.0001 12C14.0001 10.8954 13.1047 10 12.0001 10C10.8955 10 10.0001 10.8954 10.0001 12C10.0001 12.599 10.2634 13.1365 10.6806 13.503L8.98271 18.3627L7.36255 23H8.95146L10.1635 19.5309C10.7528 19.6742 11.368 19.75 12.0002 19.75C12.6323 19.75 13.2475 19.6742 13.8368 19.5309L15.0489 23H16.6378L15.0176 18.3627L13.3197 13.5029ZM10.6612 18.1064C11.0921 18.2004 11.54 18.25 12.0002 18.25C12.4603 18.25 12.9083 18.2004 13.3391 18.1064L12.0002 14.2739L10.6612 18.1064Z" fill="black"/>
</svg>
